<svg width="46" height="44" viewBox="0 0 46 44" fill="none" xmlns="http://www.w3.org/2000/svg">
<g filter="url(#filter0_b_6_348)">
<path fill-rule="evenodd" clip-rule="evenodd" d="M36.8563 8L43.7845 20C49.9429 30.6667 42.2449 44 29.9281 44H16.0717C3.7549 44 -3.94308 30.6667 2.21532 20L9.14352 7.99999C15.3019 -2.66668 30.6979 -2.66666 36.8563 8ZM33.3922 10C28.7734 2.00001 17.2264 1.99999 12.6076 10L5.67942 22C1.06062 30 6.83411 40 16.0717 40H29.9281C39.1657 40 44.9392 30 40.3204 22L33.3922 10Z" fill="url(#paint0_angular_6_348)" fill-opacity="0.3"/>
<path fill-rule="evenodd" clip-rule="evenodd" d="M36.8563 8L43.7845 20C49.9429 30.6667 42.2449 44 29.9281 44H16.0717C3.7549 44 -3.94308 30.6667 2.21532 20L9.14352 7.99999C15.3019 -2.66668 30.6979 -2.66666 36.8563 8ZM33.3922 10C28.7734 2.00001 17.2264 1.99999 12.6076 10L5.67942 22C1.06062 30 6.83411 40 16.0717 40H29.9281C39.1657 40 44.9392 30 40.3204 22L33.3922 10Z" fill="url(#paint1_radial_6_348)"/>
<path fill-rule="evenodd" clip-rule="evenodd" d="M36.8563 8L43.7845 20C49.9429 30.6667 42.2449 44 29.9281 44H16.0717C3.7549 44 -3.94308 30.6667 2.21532 20L9.14352 7.99999C15.3019 -2.66668 30.6979 -2.66666 36.8563 8ZM33.3922 10C28.7734 2.00001 17.2264 1.99999 12.6076 10L5.67942 22C1.06062 30 6.83411 40 16.0717 40H29.9281C39.1657 40 44.9392 30 40.3204 22L33.3922 10Z" fill="black" fill-opacity="0.3"/>
</g>
<defs>
<filter id="filter0_b_6_348" x="-49.9521" y="-50" width="145.904" height="144" filterUnits="userSpaceOnUse" color-interpolation-filters="sRGB">
<feFlood flood-opacity="0" result="BackgroundImageFix"/>
<feGaussianBlur in="BackgroundImageFix" stdDeviation="25"/>
<feComposite in2="SourceAlpha" operator="in" result="effect1_backgroundBlur_6_348"/>
<feBlend mode="normal" in="SourceGraphic" in2="effect1_backgroundBlur_6_348" result="shape"/>
</filter>
<radialGradient id="paint0_angular_6_348" cx="0" cy="0" r="1" gradientUnits="userSpaceOnUse" gradientTransform="translate(45.2656 44.5798) rotate(90) scale(4.78375 3.93947)">
<stop offset="0.0176888" stop-color="#F449F4"/>
<stop offset="0.426852" stop-color="#0019C0"/>
<stop offset="0.693679" stop-color="#7976E8"/>
</radialGradient>
<radialGradient id="paint1_radial_6_348" cx="0" cy="0" r="1" gradientUnits="userSpaceOnUse" gradientTransform="translate(45.1759 44.072) rotate(87.5355) scale(4.17293 2.16617)">
<stop stop-color="#31376F"/>
<stop offset="1" stop-color="#894BA2" stop-opacity="0"/>
</radialGradient>
</defs>
</svg>
